<svg width="166" height="166" viewBox="0 0 166 166" fill="none" xmlns="http://www.w3.org/2000/svg">
<path d="M132.281 59.6562H153.031C154.407 59.6562 155.726 59.1097 156.699 58.1367C157.672 57.1638 158.219 55.8444 158.219 54.4687C158.219 53.0929 157.672 51.7735 156.699 50.8006C155.726 49.8277 154.407 49.2812 153.031 49.2812H149.971C150.397 48.1059 150.534 46.8451 150.37 45.6056C150.206 44.366 149.746 43.1843 149.028 42.1603C148.311 41.1365 147.357 40.3006 146.248 39.7235C145.138 39.1463 143.907 38.8452 142.656 38.8452C141.406 38.8452 140.174 39.1463 139.065 39.7235C137.956 40.3006 137.002 41.1365 136.284 42.1603C135.566 43.1843 135.106 44.366 134.942 45.6056C134.778 46.8451 134.915 48.1059 135.342 49.2812H132.281C130.906 49.2812 129.586 49.8277 128.613 50.8006C127.64 51.7735 127.094 53.0929 127.094 54.4687C127.094 55.8444 127.64 57.1638 128.613 58.1367C129.586 59.1097 130.906 59.6562 132.281 59.6562Z" fill="black"/>
<path d="M23.3438 33.7187H44.0938C45.4695 33.7187 46.7889 33.1722 47.7618 32.1993C48.7347 31.2264 49.2812 29.907 49.2812 28.5312C49.2812 27.1555 48.7347 25.8359 47.7618 24.8631C46.7889 23.8903 45.4695 23.3437 44.0938 23.3437H41.0331C41.4598 22.1684 41.5967 20.9076 41.4328 19.6681C41.2686 18.4286 40.8085 17.2469 40.0908 16.223C39.3731 15.1991 38.4194 14.3632 37.3101 13.7861C36.201 13.209 34.9692 12.9077 33.7188 12.9077C32.4683 12.9077 31.2365 13.209 30.1274 13.7861C29.0181 14.3632 28.0644 15.1991 27.3467 16.223C26.629 17.2469 26.1689 18.4286 26.0047 19.6681C25.8407 20.9076 25.9777 22.1684 26.4044 23.3437H23.3438C21.9679 23.3437 20.6485 23.8903 19.6756 24.8631C18.7028 25.8359 18.1562 27.1555 18.1562 28.5312C18.1562 29.907 18.7028 31.2264 19.6756 32.1993C20.6485 33.1722 21.9679 33.7187 23.3438 33.7187Z" fill="black"/>
<path d="M42.2521 88.9399C42.7418 88.4541 43.4037 88.1812 44.0937 88.1812C44.7836 88.1812 45.4455 88.4541 45.9352 88.9399L49.2812 92.3118L50.1112 91.4558L44.0937 76.853L38.0762 91.4558L38.9062 92.3118L42.2521 88.9399Z" fill="black"/>
<path d="M95.0351 87.591C94.5353 88.0021 93.9011 88.2137 93.2545 88.1849C92.6079 88.1564 91.995 87.8893 91.5336 87.4353L83.0001 78.876L74.4667 87.4353C74.005 87.8887 73.3921 88.1554 72.7457 88.1842C72.0994 88.213 71.4652 88.0016 70.9651 87.591L67.8008 84.9454L35.1714 155.625H130.829L98.1995 84.9454L95.0351 87.591Z" fill="black"/>
<path d="M52.2641 96.6691L51.1228 97.8103C50.6311 98.2925 49.9699 98.5628 49.2813 98.5628C48.5926 98.5628 47.9315 98.2925 47.4397 97.8103L44.0938 94.4385L40.7478 97.8103C40.2581 98.2964 39.5962 98.569 38.9063 98.569C38.2163 98.569 37.5544 98.2964 37.0647 97.8103L35.9235 96.6691L11.646 155.625H29.465L54.3391 101.727L52.2641 96.6691Z" fill="black"/>
<path d="M120.065 88.9399C120.554 88.4541 121.216 88.1812 121.906 88.1812C122.596 88.1812 123.258 88.4541 123.748 88.9399L127.094 92.3118L127.924 91.4558L121.906 76.853L115.889 91.4558L116.719 92.3118L120.065 88.9399Z" fill="black"/>
<path d="M85.5937 31.125V59.6562H86.5274L95.9428 80.0691L93.5306 82.0922L84.8415 73.3772C84.3518 72.8911 83.6899 72.6185 82.9999 72.6185C82.31 72.6185 81.6481 72.8911 81.1584 73.3772L72.4693 82.0922L70.0571 80.0691L79.4724 59.6562H80.4062V10.375H111.531V31.125H85.5937Z" fill="black"/>
<path d="M130.077 96.6691L128.936 97.8103C128.444 98.2925 127.783 98.5628 127.094 98.5628C126.405 98.5628 125.744 98.2925 125.252 97.8103L121.906 94.4385L118.561 97.8103C118.071 98.2964 117.409 98.569 116.719 98.569C116.029 98.569 115.367 98.2964 114.877 97.8103L113.736 96.6691L111.661 101.727L136.535 155.625H154.354L130.077 96.6691Z" fill="black"/>
</svg>
